<svg width="742" height="249" viewBox="0 0 742 249" fill="none" xmlns="http://www.w3.org/2000/svg">
<g opacity="0.8">
<path d="M3.53622 107.419C3.53622 107.419 48.0127 92.0849 131.669 116.839C131.669 116.839 157.922 135.07 188.61 137.677C219.299 140.284 252.32 129.719 320.318 104.912C388.315 80.1043 414.572 134.244 419.801 137.986C425.029 141.728 450.454 165.899 497.651 122.822C544.847 79.7445 518.13 85.9869 596.535 45.1015C596.535 45.1015 628.136 19.5495 717.391 0.988792" stroke="url(#paint0_linear_1_532)" stroke-miterlimit="10"/>
<path d="M3.80742 112.818C3.80742 112.818 44.5258 104.966 131.333 121.833C131.406 121.83 133.189 123.08 136.373 124.879C145.76 130.167 165.898 140.158 188.218 141.948C219.802 144.453 252.62 133.705 319.27 109.415C365.184 92.6837 392.612 110.948 406.779 125.919C413.511 133.039 417.463 139.495 419.413 140.881C425.152 144.971 450.581 168.696 497.472 126.294C544.362 83.892 520.504 89.5663 596.852 50.2266C597.336 50.1614 605.392 43.8333 624.33 35.3678C643.626 26.7258 674.923 15.8286 717.339 7.00712" stroke="url(#paint1_linear_1_532)" stroke-miterlimit="10"/>
<path d="M4.07757 118.195C4.07757 118.195 44.4 110.292 130.989 126.807C131.144 126.835 132.905 128.04 136.064 129.744C145.789 134.984 165.838 144.529 187.824 146.187C220.306 148.642 252.932 137.642 318.169 113.905C364.004 97.2131 391.993 114.431 406.083 128.926C412.734 135.753 416.752 142.2 418.93 143.743C425.154 148.183 450.62 171.461 497.199 129.75C543.893 87.9663 522.777 93.1397 597.069 55.3406C598.036 55.2102 606.128 49.0594 624.597 40.9397C644.102 32.3536 676.619 21.4463 717.208 13.0133" stroke="url(#paint2_linear_1_532)" stroke-miterlimit="10"/>
<path d="M4.34826 123.583C4.34826 123.583 44.2749 115.634 130.653 131.786C130.875 131.826 132.621 133.012 135.748 134.599C145.824 139.791 165.803 148.879 187.43 150.417C220.808 152.786 253.218 141.608 317.066 118.359C362.836 101.707 391.373 117.885 405.408 131.947C411.973 138.518 416.06 144.885 418.468 146.636C425.189 151.414 450.674 174.257 496.947 133.241C543.388 92.1148 525.078 96.7431 597.308 60.4901C598.758 60.2945 606.893 54.3206 624.878 46.5372C644.605 38.0013 678.336 27.1046 717.058 19.0519" stroke="url(#paint3_linear_1_532)" stroke-miterlimit="10"/>
<path d="M4.61893 128.971C4.61893 128.971 44.143 120.97 130.309 136.764C130.612 136.821 132.37 137.975 135.434 139.494C145.867 144.633 165.717 153.272 187.045 154.692C221.311 156.976 253.519 145.608 315.972 122.869C361.678 106.251 390.763 121.394 404.748 134.998C411.227 141.322 415.344 147.627 418.02 149.533C425.226 154.67 450.741 177.046 496.723 136.736C542.91 96.2666 527.4 100.35 597.58 65.6376C599.507 65.3771 607.684 59.5903 625.193 52.1428C645.136 43.6575 680.081 32.7561 716.961 25.0875" stroke="url(#paint4_linear_1_532)" stroke-miterlimit="10"/>
<path d="M4.88959 134.359C4.88959 134.359 44.0112 126.312 129.946 141.749C130.33 141.817 132.06 142.937 135.099 144.37C145.902 149.454 165.643 157.639 186.632 158.948C221.801 161.14 253.798 149.579 314.864 127.36C360.506 110.791 390.131 124.883 404.08 138.029C410.478 144.06 414.654 150.342 417.579 152.42C425.282 157.9 450.829 179.875 496.485 140.241C542.413 100.43 529.715 103.973 597.832 70.7961C600.243 70.4755 608.47 64.8703 625.488 57.7544C645.661 49.319 681.812 38.4234 716.832 31.1398" stroke="url(#paint5_linear_1_532)" stroke-miterlimit="10"/>
<path d="M5.16029 139.747C5.16029 139.747 43.8668 131.665 129.63 146.727C130.08 146.807 131.809 147.897 134.803 149.245C145.997 154.268 165.634 161.978 186.272 163.197C222.343 165.292 254.124 153.547 313.81 131.848C359.38 115.318 389.546 128.365 403.432 141.059C409.723 146.82 413.976 153.051 417.144 155.312C425.318 161.137 450.895 182.64 496.246 143.701C541.919 104.547 532.029 107.55 598.083 75.9195C600.977 75.5286 609.26 70.1201 625.788 63.3306C646.183 54.9454 683.536 44.0611 716.733 37.1504" stroke="url(#paint6_linear_1_532)" stroke-miterlimit="10"/>
<path d="M5.43122 145.14C5.43122 145.14 43.6939 136.983 129.286 151.706C129.818 151.802 131.544 152.851 134.488 154.12C146.073 159.093 165.548 166.371 185.872 167.452C222.838 169.446 254.41 157.518 312.702 136.338C358.214 119.847 388.927 131.834 402.771 144.09C408.981 149.578 413.286 155.766 416.695 158.199C425.36 164.372 450.968 185.429 496.001 147.186C541.407 108.69 534.336 111.148 598.341 81.0574C601.719 80.6063 610.059 75.3945 626.089 68.9216C646.714 60.5964 685.266 49.698 716.617 43.1818" stroke="url(#paint7_linear_1_532)" stroke-miterlimit="10"/>
<path d="M5.7019 150.528C5.7019 150.528 43.5683 142.314 128.95 156.69C129.555 156.792 131.28 157.806 134.173 158.985C146.128 163.893 165.493 170.711 185.485 171.691C223.353 173.584 254.716 161.477 311.619 140.802C357.053 124.356 388.295 135.313 402.095 147.096C408.218 152.312 412.587 158.451 416.239 161.061C425.388 167.583 451.027 188.193 495.728 150.648C540.901 112.808 536.596 114.722 598.558 86.1719C602.419 85.6556 610.816 80.6506 626.349 74.4943C647.21 66.2237 686.962 55.3213 716.465 49.1844" stroke="url(#paint8_linear_1_532)" stroke-miterlimit="10"/>
<path d="M5.97256 155.916C5.97256 155.916 43.4233 147.656 128.62 161.668C129.292 161.782 131.035 162.759 133.871 163.87C146.229 168.707 165.452 175.071 185.099 175.956C223.861 177.733 255.022 165.456 310.539 145.316C355.908 128.909 387.671 138.828 401.462 150.145C407.485 155.101 411.925 161.19 415.819 163.971C425.452 170.843 451.135 191.006 495.524 154.157C540.443 116.969 538.959 118.348 598.844 91.3389C603.189 90.7524 611.649 85.959 626.684 80.109C647.775 71.8883 688.727 60.992 716.389 55.2392" stroke="url(#paint9_linear_1_532)" stroke-miterlimit="10"/>
<path d="M6.24248 161.289C6.24248 161.289 43.2435 152.97 128.263 166.637C129.029 166.758 130.763 167.693 133.542 168.73C146.303 173.486 165.415 179.38 184.692 180.192C224.368 181.856 255.308 169.416 309.437 149.791C354.735 133.424 387.026 142.313 400.767 153.163C406.69 157.847 411.201 163.892 415.343 166.845C425.467 174.065 451.161 193.782 495.272 157.622C539.937 121.107 541.259 121.93 599.082 96.4628C603.91 95.8161 612.434 91.2344 626.972 85.6907C648.299 77.5502 690.444 66.6451 716.258 61.2562" stroke="url(#paint10_linear_1_532)" stroke-miterlimit="10"/>
<path d="M6.51392 166.692C6.51392 166.692 43.0785 158.313 127.927 171.631C128.767 171.763 130.505 172.653 133.228 173.621C146.451 178.286 165.347 183.736 184.32 184.461C224.897 186.003 255.622 173.4 308.356 154.296C353.59 137.967 386.402 145.807 400.12 156.208C405.942 160.626 410.517 166.616 414.909 169.746C425.517 177.316 451.249 196.591 495.047 161.117C539.459 125.254 539.349 118.011 599.334 101.616C604.432 100.225 613.241 96.5441 627.26 91.2977C648.858 83.2254 692.168 72.2874 716.135 67.3033" stroke="url(#paint11_linear_1_532)" stroke-miterlimit="10"/>
<path d="M6.7846 172.08C6.7846 172.08 42.9064 163.647 127.584 176.61C128.504 176.753 130.247 177.597 132.912 178.496C146.478 183.073 165.279 188.077 183.914 188.722C225.398 190.137 255.908 177.381 307.256 158.796C352.444 142.506 385.744 149.308 399.439 159.25C405.162 163.402 409.814 169.342 414.447 172.644C425.513 180.564 451.303 199.391 494.796 164.618C538.968 129.411 542.078 122.166 599.592 106.759C605.165 105.267 614.054 101.844 627.568 96.8936C649.389 88.8971 693.899 77.9346 716.031 73.3291" stroke="url(#paint12_linear_1_532)" stroke-miterlimit="10"/>
<path d="M7.05528 177.468C7.05528 177.468 42.7207 168.976 127.28 181.592C128.275 181.742 129.995 182.54 132.631 183.37C146.651 187.842 165.263 192.411 183.553 192.96C225.944 194.242 256.234 181.339 306.2 163.269C351.297 147.019 385.125 152.787 398.83 162.262C404.446 166.149 409.176 172.04 414.051 175.513C425.635 183.781 451.396 202.164 494.61 168.085C538.474 133.528 544.8 126.326 599.85 111.897C605.905 110.315 614.881 107.147 627.869 102.485C649.941 94.5677 695.636 83.5815 715.92 79.3604" stroke="url(#paint13_linear_1_532)" stroke-miterlimit="10"/>
<path d="M7.32595 182.856C7.32595 182.856 42.535 174.305 126.904 186.568C127.978 186.723 129.743 187.474 132.288 188.241C146.736 192.594 165.174 196.737 183.133 197.211C226.43 198.345 256.5 185.305 305.079 167.76C350.105 151.549 384.435 156.29 398.116 165.291C403.632 168.916 408.432 174.752 413.55 178.403C425.624 187.003 451.442 204.955 494.319 171.568C537.955 137.662 547.503 130.486 600.102 117.03C606.632 115.362 615.687 112.452 628.163 108.076C650.493 100.243 697.36 89.2236 715.803 85.3865" stroke="url(#paint14_linear_1_532)" stroke-miterlimit="10"/>
<path d="M7.59662 188.244C7.59662 188.244 42.356 179.633 126.581 191.561C127.729 191.723 129.505 192.437 131.994 193.125C146.875 197.35 165.145 201.076 182.761 201.47C226.963 202.457 256.826 189.284 303.978 172.26C348.939 156.093 383.771 159.806 397.448 168.332C402.845 171.697 407.736 177.477 413.095 181.305C425.661 190.265 451.503 207.755 494.067 175.064C537.471 141.819 550.2 134.663 600.347 122.184C609.9 119.724 619.29 116.879 628.477 113.661C651.058 105.928 699.103 94.8597 715.699 91.4122" stroke="url(#paint15_linear_1_532)" stroke-miterlimit="10"/>
<path d="M7.86757 193.637C7.86757 193.637 42.1501 184.959 126.224 196.536C127.453 196.704 129.246 197.356 131.632 197.998C146.966 202.077 165.042 205.404 182.321 205.723C227.429 206.551 257.04 193.273 302.883 176.74C347.8 160.616 383.121 163.328 396.806 171.336C402.089 174.447 407.07 180.161 412.679 184.165C425.716 193.495 451.596 210.528 493.849 178.543C536.992 145.956 552.909 138.824 600.625 127.317C610.183 125.028 619.581 122.336 628.778 119.253C651.631 111.618 700.84 100.502 715.588 97.4386" stroke="url(#paint16_linear_1_532)" stroke-miterlimit="10"/>
<path d="M8.13926 199.046C8.13926 199.046 41.9455 190.309 125.882 201.535C127.191 201.71 128.995 202.309 131.344 202.892C147.13 206.81 165.027 209.747 181.955 209.992C227.995 210.656 257.4 197.245 301.809 181.249C346.636 165.186 382.431 166.846 396.147 174.408C401.317 177.258 406.382 182.917 412.233 187.093C425.767 196.751 451.671 213.353 493.618 182.048C536.5 150.098 555.586 142.991 600.882 132.439C610.444 130.331 619.857 127.808 629.074 124.885C652.193 117.37 702.559 106.19 715.473 103.506" stroke="url(#paint17_linear_1_532)" stroke-miterlimit="10"/>
<path d="M8.40891 204.413C8.40891 204.413 41.7319 195.614 125.545 206.498C126.927 206.674 128.741 207.222 131.029 207.757C147.265 211.494 164.964 214.063 181.568 214.236C228.493 214.728 257.698 201.204 300.722 185.744C345.475 169.685 381.748 170.374 395.466 177.444C400.51 180.045 405.671 185.627 411.765 189.986C425.783 199.993 451.751 216.147 493.36 185.539C535.994 154.241 558.237 147.195 601.116 137.624C609.609 135.73 618.978 133.76 629.362 130.482C652.754 123.091 704.276 111.838 715.343 109.538" stroke="url(#paint18_linear_1_532)" stroke-miterlimit="10"/>
<path d="M8.67959 209.801C8.67959 209.801 41.5332 200.949 125.215 211.476C126.677 211.659 128.509 212.15 130.726 212.622C147.426 216.161 164.927 218.371 181.188 218.475C229.017 218.784 258.004 205.164 299.639 190.207C344.328 174.203 381.071 173.886 394.81 180.444C399.742 182.8 404.993 188.321 411.328 192.847C425.851 203.202 451.804 218.911 493.147 188.993C535.509 158.378 560.892 151.328 601.4 142.735C610.392 140.826 619.838 139.062 629.688 136.046C653.373 128.779 706.018 117.439 715.238 115.543" stroke="url(#paint19_linear_1_532)" stroke-miterlimit="10"/>
<path d="M8.95024 215.189C8.95024 215.189 41.2935 206.265 124.865 216.455C126.401 216.644 128.23 217.084 130.398 217.497C147.56 220.814 164.857 222.692 180.781 222.73C229.521 222.84 258.289 209.118 298.538 194.697C343.162 178.731 380.349 177.431 394.135 183.475C398.908 185.583 404.283 191.037 410.867 195.734C425.86 206.439 451.857 221.701 492.882 192.478C535.05 162.518 563.51 155.529 601.658 147.878C611.164 145.968 620.68 144.401 630.016 141.64C653.976 134.549 707.763 123.105 715.174 121.572" stroke="url(#paint20_linear_1_532)" stroke-miterlimit="10"/>
<path d="M9.22093 220.577C9.22093 220.577 41.0674 211.586 124.521 221.434C126.138 221.624 127.99 222.002 130.082 222.367C147.712 225.436 164.807 227.007 180.395 226.975C230.038 226.886 258.589 213.098 297.449 199.182C341.989 183.256 379.655 180.99 393.493 186.5C398.175 188.367 403.612 193.746 410.438 198.615C425.922 209.669 451.95 224.484 492.663 195.958C534.531 166.652 566.107 159.716 601.896 153.012C611.91 151.138 621.488 149.736 630.276 147.228C654.539 140.316 709.493 128.747 715.023 127.595" stroke="url(#paint21_linear_1_532)" stroke-miterlimit="10"/>
<path d="M9.49159 225.965C9.49159 225.965 40.8346 216.907 124.198 226.417C125.895 226.613 127.758 226.934 129.787 227.246C147.89 230.04 164.771 231.325 179.995 231.236C230.548 230.931 258.883 217.078 296.355 203.676C340.837 187.794 378.941 184.571 392.806 189.537C397.355 191.165 402.895 196.462 409.97 201.508C425.938 212.906 451.991 227.28 492.392 199.449C534.019 170.8 568.618 163.906 602.12 158.131C612.651 156.323 622.289 155.072 630.523 152.806C655.083 146.099 711.17 134.376 714.858 133.608" stroke="url(#paint22_linear_1_532)" stroke-miterlimit="10"/>
<path d="M9.76231 231.353C9.76231 231.353 40.5886 222.229 123.842 231.403C125.618 231.595 127.485 231.859 129.453 232.144C148.021 234.628 164.702 235.662 179.63 235.505C231.084 234.967 259.21 221.068 295.288 208.186C339.706 192.343 378.256 188.187 392.165 192.577C396.609 193.965 402.206 199.198 409.541 204.395C425.994 216.142 452.084 230.074 492.147 202.931C533.521 174.944 571.15 168.117 602.366 163.301C613.422 161.59 623.112 160.433 630.839 158.423C655.711 151.951 712.908 140.049 714.756 139.665" stroke="url(#paint23_linear_1_532)" stroke-miterlimit="10"/>
<path d="M10.033 236.742C10.033 236.742 41.7088 227.14 129.137 236.999C216.565 246.857 249.846 228.459 294.199 212.655C338.552 196.851 377.55 191.787 391.503 195.593C405.456 199.398 434.4 244.64 491.915 206.416C549.43 168.191 605.941 170.216 631.14 164.02C656.339 157.823 714.645 145.696 714.645 145.696" stroke="url(#paint24_linear_1_532)" stroke-miterlimit="10"/>
<path d="M9.76692 231.445C9.76692 231.445 48.3835 224.492 130.204 231.022C212.024 237.551 249.143 220.56 292.454 207.525C335.766 194.49 377.274 189.484 393.303 191.072C409.332 192.661 441.347 231.626 498.554 197.877C555.761 164.128 608.72 167.539 635.871 160.513C663.022 153.487 717.345 140.103 717.345 140.103" stroke="url(#paint25_linear_1_532)" stroke-miterlimit="10"/>
<path d="M9.50061 226.144C9.50061 226.144 55.0513 221.84 131.269 225.019C207.487 228.198 248.458 212.631 290.72 202.323C332.981 192.016 377.022 187.108 395.126 186.48C413.231 185.852 448.338 218.554 505.19 189.273C562.041 159.992 611.482 164.787 640.592 156.941C669.703 149.095 720.034 134.438 720.034 134.438" stroke="url(#paint26_linear_1_532)" stroke-miterlimit="10"/>
<path d="M9.23426 220.842C9.23426 220.842 61.7193 219.193 132.335 219.026C202.95 218.86 247.794 204.72 289.006 197.156C330.219 189.592 376.784 184.766 396.924 181.923C417.064 179.08 455.29 205.498 511.8 180.7C568.309 155.901 614.213 162.076 645.289 153.4C676.364 144.724 722.732 128.809 722.732 128.809" stroke="url(#paint27_linear_1_532)" stroke-miterlimit="10"/>
<path d="M8.96793 215.541C8.96793 215.541 68.3607 216.547 133.407 213.034C198.454 209.52 247.083 196.806 287.267 192.005C327.452 187.204 376.533 182.426 398.783 177.374C421.032 172.323 462.296 192.455 518.464 172.14C574.632 151.824 617.031 159.367 650.032 149.867C683.033 140.368 725.41 123.185 725.41 123.185" stroke="url(#paint28_linear_1_532)" stroke-miterlimit="10"/>
<path d="M8.70161 210.24C8.70161 210.24 75.0553 213.899 134.473 207.042C193.891 200.184 246.412 188.891 285.567 186.822C324.722 184.752 376.302 180.079 400.62 172.801C424.938 165.523 469.268 179.389 525.101 163.556C580.934 147.722 619.808 156.644 654.773 146.299C689.739 135.954 728.12 117.55 728.12 117.55" stroke="url(#paint29_linear_1_532)" stroke-miterlimit="10"/>
<path d="M8.4353 204.939C8.4353 204.939 81.73 211.251 135.539 201.049C189.348 190.847 245.727 180.972 283.82 181.656C321.914 182.341 376.024 177.74 402.425 168.245C428.825 158.75 476.239 166.322 531.731 154.987C587.224 143.652 622.565 153.928 659.484 142.779C696.403 131.63 730.804 111.917 730.804 111.917" stroke="url(#paint30_linear_1_532)" stroke-miterlimit="10"/>
<path d="M8.16927 199.643C8.16927 199.643 88.3981 208.605 136.625 195.057C184.851 181.509 245.043 173.068 282.101 176.495C319.159 179.923 375.78 175.405 404.25 163.709C432.72 152.013 483.245 153.28 538.362 146.414C593.478 139.548 625.329 151.217 664.207 139.238C703.084 127.259 733.489 106.289 733.489 106.289" stroke="url(#paint31_linear_1_532)" stroke-miterlimit="10"/>
<path d="M7.90293 194.341C7.90293 194.341 95.0782 205.931 137.658 189.071C180.237 172.21 244.326 165.155 280.334 171.325C316.343 177.496 375.556 173.058 406.067 159.131C436.579 145.205 490.184 140.225 545.018 137.829C599.853 135.432 628.126 148.487 668.93 135.696C709.733 122.904 736.18 100.66 736.18 100.66" stroke="url(#paint32_linear_1_532)" stroke-miterlimit="10"/>
<path d="M7.63661 189.04C7.63661 189.04 101.734 203.306 138.737 183.078C175.74 162.851 243.655 157.239 278.621 166.158C313.588 175.077 375.258 170.72 407.872 154.575C440.486 138.43 497.176 127.173 551.609 129.272C606.043 131.372 630.89 145.766 673.646 132.155C716.402 118.544 738.871 95.031 738.871 95.031" stroke="url(#paint33_linear_1_532)" stroke-miterlimit="10"/>
<path d="M7.3703 183.739C7.3703 183.739 108.402 200.659 139.803 177.086C171.203 153.513 243.01 149.323 276.935 160.99C310.859 172.656 375.054 168.378 409.736 150.011C444.419 131.645 504.161 114.116 558.286 120.697C612.412 127.277 633.635 143.07 678.369 128.618C723.103 114.166 741.562 89.4022 741.562 89.4022" stroke="url(#paint34_linear_1_532)" stroke-miterlimit="10"/>
</g>
<defs>
<linearGradient id="paint0_linear_1_532" x1="692.573" y1="-42.311" x2="4.48694" y2="25.4966" gradientUnits="userSpaceOnUse">
<stop stop-opacity="0"/>
<stop offset="0.0885417" stop-opacity="0.22"/>
<stop offset="0.265625" stop-opacity="0.38"/>
<stop offset="0.505208" stop-opacity="0.63"/>
<stop offset="0.760417" stop-opacity="0.31"/>
<stop offset="0.927083" stop-opacity="0.12"/>
<stop offset="1" stop-opacity="0"/>
</linearGradient>
<linearGradient id="paint1_linear_1_532" x1="692.582" y1="-35.314" x2="4.94159" y2="33.1834" gradientUnits="userSpaceOnUse">
<stop stop-opacity="0"/>
<stop offset="0.0885417" stop-opacity="0.22"/>
<stop offset="0.265625" stop-opacity="0.38"/>
<stop offset="0.505208" stop-opacity="0.63"/>
<stop offset="0.760417" stop-opacity="0.31"/>
<stop offset="0.927083" stop-opacity="0.12"/>
<stop offset="1" stop-opacity="0"/>
</linearGradient>
<linearGradient id="paint2_linear_1_532" x1="692.514" y1="-28.3235" x2="5.40154" y2="40.8891" gradientUnits="userSpaceOnUse">
<stop stop-opacity="0"/>
<stop offset="0.0885417" stop-opacity="0.22"/>
<stop offset="0.265625" stop-opacity="0.38"/>
<stop offset="0.505208" stop-opacity="0.63"/>
<stop offset="0.760417" stop-opacity="0.31"/>
<stop offset="0.927083" stop-opacity="0.12"/>
<stop offset="1" stop-opacity="0"/>
</linearGradient>
<linearGradient id="paint3_linear_1_532" x1="692.427" y1="-21.3" x2="5.86987" y2="48.6601" gradientUnits="userSpaceOnUse">
<stop stop-opacity="0"/>
<stop offset="0.0885417" stop-opacity="0.22"/>
<stop offset="0.265625" stop-opacity="0.38"/>
<stop offset="0.505208" stop-opacity="0.63"/>
<stop offset="0.760417" stop-opacity="0.31"/>
<stop offset="0.927083" stop-opacity="0.12"/>
<stop offset="1" stop-opacity="0"/>
</linearGradient>
<linearGradient id="paint4_linear_1_532" x1="692.393" y1="-14.2819" x2="6.34637" y2="56.4684" gradientUnits="userSpaceOnUse">
<stop stop-opacity="0"/>
<stop offset="0.0885417" stop-opacity="0.22"/>
<stop offset="0.265625" stop-opacity="0.38"/>
<stop offset="0.505208" stop-opacity="0.63"/>
<stop offset="0.760417" stop-opacity="0.31"/>
<stop offset="0.927083" stop-opacity="0.12"/>
<stop offset="1" stop-opacity="0"/>
</linearGradient>
<linearGradient id="paint5_linear_1_532" x1="692.326" y1="-7.24557" x2="6.8317" y2="64.3312" gradientUnits="userSpaceOnUse">
<stop stop-opacity="0"/>
<stop offset="0.0885417" stop-opacity="0.22"/>
<stop offset="0.265625" stop-opacity="0.38"/>
<stop offset="0.505208" stop-opacity="0.63"/>
<stop offset="0.760417" stop-opacity="0.31"/>
<stop offset="0.927083" stop-opacity="0.12"/>
<stop offset="1" stop-opacity="0"/>
</linearGradient>
<linearGradient id="paint6_linear_1_532" x1="692.29" y1="-0.253102" x2="7.32444" y2="72.1961" gradientUnits="userSpaceOnUse">
<stop stop-opacity="0"/>
<stop offset="0.0885417" stop-opacity="0.22"/>
<stop offset="0.265625" stop-opacity="0.38"/>
<stop offset="0.505208" stop-opacity="0.63"/>
<stop offset="0.760417" stop-opacity="0.31"/>
<stop offset="0.927083" stop-opacity="0.12"/>
<stop offset="1" stop-opacity="0"/>
</linearGradient>
<linearGradient id="paint7_linear_1_532" x1="692.236" y1="6.76183" x2="7.82824" y2="80.1281" gradientUnits="userSpaceOnUse">
<stop stop-opacity="0"/>
<stop offset="0.0885417" stop-opacity="0.22"/>
<stop offset="0.265625" stop-opacity="0.38"/>
<stop offset="0.505208" stop-opacity="0.63"/>
<stop offset="0.760417" stop-opacity="0.31"/>
<stop offset="0.927083" stop-opacity="0.12"/>
<stop offset="1" stop-opacity="0"/>
</linearGradient>
<linearGradient id="paint8_linear_1_532" x1="692.147" y1="13.7461" x2="8.34058" y2="88.0719" gradientUnits="userSpaceOnUse">
<stop stop-opacity="0"/>
<stop offset="0.0885417" stop-opacity="0.22"/>
<stop offset="0.265625" stop-opacity="0.38"/>
<stop offset="0.505208" stop-opacity="0.63"/>
<stop offset="0.760417" stop-opacity="0.31"/>
<stop offset="0.927083" stop-opacity="0.12"/>
<stop offset="1" stop-opacity="0"/>
</linearGradient>
<linearGradient id="paint9_linear_1_532" x1="692.133" y1="20.7842" x2="8.86985" y2="96.1369" gradientUnits="userSpaceOnUse">
<stop stop-opacity="0"/>
<stop offset="0.0885417" stop-opacity="0.22"/>
<stop offset="0.265625" stop-opacity="0.38"/>
<stop offset="0.505208" stop-opacity="0.63"/>
<stop offset="0.760417" stop-opacity="0.31"/>
<stop offset="0.927083" stop-opacity="0.12"/>
<stop offset="1" stop-opacity="0"/>
</linearGradient>
<linearGradient id="paint10_linear_1_532" x1="692.065" y1="27.7848" x2="9.40969" y2="104.214" gradientUnits="userSpaceOnUse">
<stop stop-opacity="0"/>
<stop offset="0.0885417" stop-opacity="0.22"/>
<stop offset="0.265625" stop-opacity="0.38"/>
<stop offset="0.505208" stop-opacity="0.63"/>
<stop offset="0.760417" stop-opacity="0.31"/>
<stop offset="0.927083" stop-opacity="0.12"/>
<stop offset="1" stop-opacity="0"/>
</linearGradient>
<linearGradient id="paint11_linear_1_532" x1="692.005" y1="34.8145" x2="9.96608" y2="112.384" gradientUnits="userSpaceOnUse">
<stop stop-opacity="0"/>
<stop offset="0.0885417" stop-opacity="0.22"/>
<stop offset="0.265625" stop-opacity="0.38"/>
<stop offset="0.505208" stop-opacity="0.63"/>
<stop offset="0.760417" stop-opacity="0.31"/>
<stop offset="0.927083" stop-opacity="0.12"/>
<stop offset="1" stop-opacity="0"/>
</linearGradient>
<linearGradient id="paint12_linear_1_532" x1="691.963" y1="41.8179" x2="10.5372" y2="120.594" gradientUnits="userSpaceOnUse">
<stop stop-opacity="0"/>
<stop offset="0.0885417" stop-opacity="0.22"/>
<stop offset="0.265625" stop-opacity="0.38"/>
<stop offset="0.505208" stop-opacity="0.63"/>
<stop offset="0.760417" stop-opacity="0.31"/>
<stop offset="0.927083" stop-opacity="0.12"/>
<stop offset="1" stop-opacity="0"/>
</linearGradient>
<linearGradient id="paint13_linear_1_532" x1="691.915" y1="48.837" x2="11.1304" y2="128.907" gradientUnits="userSpaceOnUse">
<stop stop-opacity="0"/>
<stop offset="0.0885417" stop-opacity="0.22"/>
<stop offset="0.265625" stop-opacity="0.38"/>
<stop offset="0.505208" stop-opacity="0.63"/>
<stop offset="0.760417" stop-opacity="0.31"/>
<stop offset="0.927083" stop-opacity="0.12"/>
<stop offset="1" stop-opacity="0"/>
</linearGradient>
<linearGradient id="paint14_linear_1_532" x1="691.86" y1="55.846" x2="11.7427" y2="137.284" gradientUnits="userSpaceOnUse">
<stop stop-opacity="0"/>
<stop offset="0.0885417" stop-opacity="0.22"/>
<stop offset="0.265625" stop-opacity="0.38"/>
<stop offset="0.505208" stop-opacity="0.63"/>
<stop offset="0.760417" stop-opacity="0.31"/>
<stop offset="0.927083" stop-opacity="0.12"/>
<stop offset="1" stop-opacity="0"/>
</linearGradient>
<linearGradient id="paint15_linear_1_532" x1="691.818" y1="62.8474" x2="12.3766" y2="145.735" gradientUnits="userSpaceOnUse">
<stop stop-opacity="0"/>
<stop offset="0.0885417" stop-opacity="0.22"/>
<stop offset="0.265625" stop-opacity="0.38"/>
<stop offset="0.505208" stop-opacity="0.63"/>
<stop offset="0.760417" stop-opacity="0.31"/>
<stop offset="0.927083" stop-opacity="0.12"/>
<stop offset="1" stop-opacity="0"/>
</linearGradient>
<linearGradient id="paint16_linear_1_532" x1="691.77" y1="69.8582" x2="13.0403" y2="154.307" gradientUnits="userSpaceOnUse">
<stop stop-opacity="0"/>
<stop offset="0.0885417" stop-opacity="0.22"/>
<stop offset="0.265625" stop-opacity="0.38"/>
<stop offset="0.505208" stop-opacity="0.63"/>
<stop offset="0.760417" stop-opacity="0.31"/>
<stop offset="0.927083" stop-opacity="0.12"/>
<stop offset="1" stop-opacity="0"/>
</linearGradient>
<linearGradient id="paint17_linear_1_532" x1="691.717" y1="76.9101" x2="13.7365" y2="163.03" gradientUnits="userSpaceOnUse">
<stop stop-opacity="0"/>
<stop offset="0.0885417" stop-opacity="0.22"/>
<stop offset="0.265625" stop-opacity="0.38"/>
<stop offset="0.505208" stop-opacity="0.63"/>
<stop offset="0.760417" stop-opacity="0.31"/>
<stop offset="0.927083" stop-opacity="0.12"/>
<stop offset="1" stop-opacity="0"/>
</linearGradient>
<linearGradient id="paint18_linear_1_532" x1="691.65" y1="83.9226" x2="14.4634" y2="171.824" gradientUnits="userSpaceOnUse">
<stop stop-opacity="0"/>
<stop offset="0.0885417" stop-opacity="0.22"/>
<stop offset="0.265625" stop-opacity="0.38"/>
<stop offset="0.505208" stop-opacity="0.63"/>
<stop offset="0.760417" stop-opacity="0.31"/>
<stop offset="0.927083" stop-opacity="0.12"/>
<stop offset="1" stop-opacity="0"/>
</linearGradient>
<linearGradient id="paint19_linear_1_532" x1="691.607" y1="90.9103" x2="15.2305" y2="180.737" gradientUnits="userSpaceOnUse">
<stop stop-opacity="0"/>
<stop offset="0.0885417" stop-opacity="0.22"/>
<stop offset="0.265625" stop-opacity="0.38"/>
<stop offset="0.505208" stop-opacity="0.63"/>
<stop offset="0.760417" stop-opacity="0.31"/>
<stop offset="0.927083" stop-opacity="0.12"/>
<stop offset="1" stop-opacity="0"/>
</linearGradient>
<linearGradient id="paint20_linear_1_532" x1="691.601" y1="97.859" x2="16.0115" y2="189.629" gradientUnits="userSpaceOnUse">
<stop stop-opacity="0"/>
<stop offset="0.0885417" stop-opacity="0.22"/>
<stop offset="0.265625" stop-opacity="0.38"/>
<stop offset="0.505208" stop-opacity="0.63"/>
<stop offset="0.760417" stop-opacity="0.31"/>
<stop offset="0.927083" stop-opacity="0.12"/>
<stop offset="1" stop-opacity="0"/>
</linearGradient>
<linearGradient id="paint21_linear_1_532" x1="691.495" y1="104.49" x2="16.6469" y2="197.578" gradientUnits="userSpaceOnUse">
<stop stop-opacity="0"/>
<stop offset="0.0885417" stop-opacity="0.22"/>
<stop offset="0.265625" stop-opacity="0.38"/>
<stop offset="0.505208" stop-opacity="0.63"/>
<stop offset="0.760417" stop-opacity="0.31"/>
<stop offset="0.927083" stop-opacity="0.12"/>
<stop offset="1" stop-opacity="0"/>
</linearGradient>
<linearGradient id="paint22_linear_1_532" x1="691.375" y1="111.103" x2="17.2979" y2="205.553" gradientUnits="userSpaceOnUse">
<stop stop-opacity="0"/>
<stop offset="0.0885417" stop-opacity="0.22"/>
<stop offset="0.265625" stop-opacity="0.38"/>
<stop offset="0.505208" stop-opacity="0.63"/>
<stop offset="0.760417" stop-opacity="0.31"/>
<stop offset="0.927083" stop-opacity="0.12"/>
<stop offset="1" stop-opacity="0"/>
</linearGradient>
<linearGradient id="paint23_linear_1_532" x1="691.316" y1="117.772" x2="17.9848" y2="213.701" gradientUnits="userSpaceOnUse">
<stop stop-opacity="0"/>
<stop offset="0.0885417" stop-opacity="0.22"/>
<stop offset="0.265625" stop-opacity="0.38"/>
<stop offset="0.505208" stop-opacity="0.63"/>
<stop offset="0.760417" stop-opacity="0.31"/>
<stop offset="0.927083" stop-opacity="0.12"/>
<stop offset="1" stop-opacity="0"/>
</linearGradient>
<linearGradient id="paint24_linear_1_532" x1="691.249" y1="124.418" x2="18.6991" y2="221.912" gradientUnits="userSpaceOnUse">
<stop stop-opacity="0"/>
<stop offset="0.0885417" stop-opacity="0.22"/>
<stop offset="0.265625" stop-opacity="0.38"/>
<stop offset="0.505208" stop-opacity="0.63"/>
<stop offset="0.760417" stop-opacity="0.31"/>
<stop offset="0.927083" stop-opacity="0.12"/>
<stop offset="1" stop-opacity="0"/>
</linearGradient>
<linearGradient id="paint25_linear_1_532" x1="693.893" y1="119.588" x2="19.1187" y2="219.938" gradientUnits="userSpaceOnUse">
<stop stop-opacity="0"/>
<stop offset="0.0885417" stop-opacity="0.22"/>
<stop offset="0.265625" stop-opacity="0.38"/>
<stop offset="0.505208" stop-opacity="0.63"/>
<stop offset="0.760417" stop-opacity="0.31"/>
<stop offset="0.927083" stop-opacity="0.12"/>
<stop offset="1" stop-opacity="0"/>
</linearGradient>
<linearGradient id="paint26_linear_1_532" x1="696.524" y1="114.624" x2="19.5476" y2="217.817" gradientUnits="userSpaceOnUse">
<stop stop-opacity="0"/>
<stop offset="0.0885417" stop-opacity="0.22"/>
<stop offset="0.265625" stop-opacity="0.38"/>
<stop offset="0.505208" stop-opacity="0.63"/>
<stop offset="0.760417" stop-opacity="0.31"/>
<stop offset="0.927083" stop-opacity="0.12"/>
<stop offset="1" stop-opacity="0"/>
</linearGradient>
<linearGradient id="paint27_linear_1_532" x1="699.158" y1="109.598" x2="19.9522" y2="215.485" gradientUnits="userSpaceOnUse">
<stop stop-opacity="0"/>
<stop offset="0.0885417" stop-opacity="0.22"/>
<stop offset="0.265625" stop-opacity="0.38"/>
<stop offset="0.505208" stop-opacity="0.63"/>
<stop offset="0.760417" stop-opacity="0.31"/>
<stop offset="0.927083" stop-opacity="0.12"/>
<stop offset="1" stop-opacity="0"/>
</linearGradient>
<linearGradient id="paint28_linear_1_532" x1="701.761" y1="104.324" x2="20.1522" y2="212.135" gradientUnits="userSpaceOnUse">
<stop stop-opacity="0"/>
<stop offset="0.0885417" stop-opacity="0.22"/>
<stop offset="0.265625" stop-opacity="0.38"/>
<stop offset="0.505208" stop-opacity="0.63"/>
<stop offset="0.760417" stop-opacity="0.31"/>
<stop offset="0.927083" stop-opacity="0.12"/>
<stop offset="1" stop-opacity="0"/>
</linearGradient>
<linearGradient id="paint29_linear_1_532" x1="704.365" y1="98.455" x2="19.7796" y2="206.165" gradientUnits="userSpaceOnUse">
<stop stop-opacity="0"/>
<stop offset="0.0885417" stop-opacity="0.22"/>
<stop offset="0.265625" stop-opacity="0.38"/>
<stop offset="0.505208" stop-opacity="0.63"/>
<stop offset="0.760417" stop-opacity="0.31"/>
<stop offset="0.927083" stop-opacity="0.12"/>
<stop offset="1" stop-opacity="0"/>
</linearGradient>
<linearGradient id="paint30_linear_1_532" x1="706.937" y1="92.4332" x2="19.2611" y2="199.517" gradientUnits="userSpaceOnUse">
<stop stop-opacity="0"/>
<stop offset="0.0885417" stop-opacity="0.22"/>
<stop offset="0.265625" stop-opacity="0.38"/>
<stop offset="0.505208" stop-opacity="0.63"/>
<stop offset="0.760417" stop-opacity="0.31"/>
<stop offset="0.927083" stop-opacity="0.12"/>
<stop offset="1" stop-opacity="0"/>
</linearGradient>
<linearGradient id="paint31_linear_1_532" x1="709.506" y1="86.388" x2="18.7278" y2="192.78" gradientUnits="userSpaceOnUse">
<stop stop-opacity="0"/>
<stop offset="0.0885417" stop-opacity="0.22"/>
<stop offset="0.265625" stop-opacity="0.38"/>
<stop offset="0.505208" stop-opacity="0.63"/>
<stop offset="0.760417" stop-opacity="0.31"/>
<stop offset="0.927083" stop-opacity="0.12"/>
<stop offset="1" stop-opacity="0"/>
</linearGradient>
<linearGradient id="paint32_linear_1_532" x1="712.083" y1="80.3339" x2="18.2009" y2="186.045" gradientUnits="userSpaceOnUse">
<stop stop-opacity="0"/>
<stop offset="0.0885417" stop-opacity="0.22"/>
<stop offset="0.265625" stop-opacity="0.38"/>
<stop offset="0.505208" stop-opacity="0.63"/>
<stop offset="0.760417" stop-opacity="0.31"/>
<stop offset="0.927083" stop-opacity="0.12"/>
<stop offset="1" stop-opacity="0"/>
</linearGradient>
<linearGradient id="paint33_linear_1_532" x1="714.658" y1="74.2688" x2="17.6768" y2="179.298" gradientUnits="userSpaceOnUse">
<stop stop-opacity="0"/>
<stop offset="0.0885417" stop-opacity="0.22"/>
<stop offset="0.265625" stop-opacity="0.38"/>
<stop offset="0.505208" stop-opacity="0.63"/>
<stop offset="0.760417" stop-opacity="0.31"/>
<stop offset="0.927083" stop-opacity="0.12"/>
<stop offset="1" stop-opacity="0"/>
</linearGradient>
<linearGradient id="paint34_linear_1_532" x1="717.233" y1="68.2038" x2="17.1651" y2="172.584" gradientUnits="userSpaceOnUse">
<stop stop-opacity="0"/>
<stop offset="0.0885417" stop-opacity="0.22"/>
<stop offset="0.265625" stop-opacity="0.38"/>
<stop offset="0.505208" stop-opacity="0.63"/>
<stop offset="0.760417" stop-opacity="0.31"/>
<stop offset="0.927083" stop-opacity="0.12"/>
<stop offset="1" stop-opacity="0"/>
</linearGradient>
</defs>
</svg>
