<svg width="247" height="90" viewBox="0 0 247 90" fill="none" xmlns="http://www.w3.org/2000/svg">
<path d="M59.9084 23.2485V6.26767H64.0941L68.7793 19.5622H68.8269L73.3932 6.26767H77.5314V23.2485H74.7012V10.1443H74.6536L69.9447 23.2485H67.495L62.7861 10.1443H62.7385V23.2485H59.9084ZM87.1556 9.19295L84.587 16.4942H89.7716L87.2269 9.19295H87.1556ZM79.117 23.2485L85.6335 6.26767H88.7966L95.3368 23.2485H92.1499L90.5565 18.7536H83.7784L82.185 23.2485H79.117ZM99.9267 8.69351V13.9971H104.802C106.736 13.9971 107.704 13.0933 107.704 11.2858C107.704 9.55762 106.721 8.69351 104.755 8.69351H99.9267ZM96.9538 23.2485V6.26767H105.064C106.903 6.26767 108.298 6.67198 109.25 7.48059C110.201 8.27335 110.676 9.39906 110.676 10.8577C110.676 13.0616 109.741 14.4886 107.87 15.1386V15.1862C109.551 15.424 110.391 16.6211 110.391 18.7774C110.391 21.0922 110.7 22.5826 111.319 23.2485H108.132C107.83 22.757 107.68 21.9246 107.68 20.7513C107.68 19.1183 107.458 17.9767 107.014 17.3266C106.522 16.6132 105.619 16.2564 104.303 16.2564H99.9267V23.2485H96.9538ZM128.135 11.6664H125.163C124.592 9.41492 123.181 8.2892 120.929 8.2892C119.233 8.2892 117.917 8.96305 116.981 10.3107C116.173 11.484 115.768 12.9665 115.768 14.7581C115.768 16.5497 116.173 18.0322 116.981 19.2055C117.917 20.5532 119.233 21.227 120.929 21.227C122.198 21.227 123.22 20.791 123.997 19.919C124.711 19.1262 125.131 18.0798 125.258 16.7796H128.159C128.032 18.8249 127.303 20.4818 125.971 21.7502C124.655 23.0186 122.975 23.6528 120.929 23.6528C118.456 23.6528 116.466 22.7729 114.96 21.013C113.517 19.3482 112.796 17.2632 112.796 14.7581C112.796 12.2371 113.517 10.1443 114.96 8.47947C116.466 6.7354 118.456 5.86337 120.929 5.86337C122.879 5.86337 124.513 6.37073 125.828 7.38546C127.192 8.44776 127.961 9.87472 128.135 11.6664ZM146.638 6.26767V17.7785C146.638 19.5701 146.313 20.9178 145.663 21.8216C144.791 23.0424 143.253 23.6528 141.049 23.6528C139.337 23.6528 138.045 23.1296 137.173 22.0832C136.38 21.1477 135.984 19.8555 135.984 18.2066V17.3029H138.957V18.1828C138.957 19.1975 139.123 19.9427 139.456 20.4184C139.821 20.9575 140.431 21.227 141.287 21.227C142.207 21.227 142.841 20.9416 143.19 20.3708C143.507 19.8952 143.666 19.0866 143.666 17.945V6.26767H146.638ZM157.486 5.86337C159.959 5.86337 161.949 6.7354 163.455 8.47947C164.898 10.1601 165.62 12.253 165.62 14.7581C165.62 17.2632 164.898 19.3482 163.455 21.013C161.949 22.7729 159.959 23.6528 157.486 23.6528C155.012 23.6528 153.023 22.7729 151.516 21.013C150.074 19.3482 149.352 17.2632 149.352 14.7581C149.352 12.253 150.074 10.1601 151.516 8.47947C153.023 6.7354 155.012 5.86337 157.486 5.86337ZM157.486 8.2892C155.789 8.2892 154.473 8.96305 153.538 10.3107C152.729 11.484 152.325 12.9665 152.325 14.7581C152.325 16.5497 152.729 18.0322 153.538 19.2055C154.473 20.5532 155.789 21.227 157.486 21.227C159.182 21.227 160.498 20.5532 161.434 19.2055C162.242 18.0322 162.647 16.5497 162.647 14.7581C162.647 12.9665 162.242 11.484 161.434 10.3107C160.498 8.96305 159.182 8.2892 157.486 8.2892ZM174.39 9.19295L171.821 16.4942H177.006L174.461 9.19295H174.39ZM166.351 23.2485L172.868 6.26767H176.031L182.571 23.2485H179.384L177.791 18.7536H171.013L169.419 23.2485H166.351ZM198.624 11.6664H195.651C195.081 9.41492 193.669 8.2892 191.418 8.2892C189.722 8.2892 188.406 8.96305 187.47 10.3107C186.662 11.484 186.257 12.9665 186.257 14.7581C186.257 16.5497 186.662 18.0322 187.47 19.2055C188.406 20.5532 189.722 21.227 191.418 21.227C192.686 21.227 193.709 20.791 194.486 19.919C195.2 19.1262 195.62 18.0798 195.747 16.7796H198.648C198.521 18.8249 197.792 20.4818 196.46 21.7502C195.144 23.0186 193.463 23.6528 191.418 23.6528C188.945 23.6528 186.955 22.7729 185.449 21.013C184.006 19.3482 183.284 17.2632 183.284 14.7581C183.284 12.2371 184.006 10.1443 185.449 8.47947C186.955 6.7354 188.945 5.86337 191.418 5.86337C193.368 5.86337 195.001 6.37073 196.317 7.38546C197.681 8.44776 198.45 9.87472 198.624 11.6664ZM201.28 23.2485V6.26767H204.253V13.022H211.982V6.26767H214.955V23.2485H211.982V15.5905H204.253V23.2485H201.28ZM218.515 23.2485V6.26767H221.488V23.2485H218.515ZM225.087 23.2485V6.26767H229.273L233.958 19.5622H234.005L238.572 6.26767H242.71V23.2485H239.88V10.1443H239.832L235.123 23.2485H232.673L227.964 10.1443H227.917V23.2485H225.087Z" fill="white"/>
<path d="M59.6888 60.9717V31.3681H64.8715V43.1432H78.3465V31.3681H83.5292V60.9717H78.3465V47.621H64.8715V60.9717H59.6888ZM89.4035 50.316V31.3681H94.5862V48.6161C94.5862 51.2973 94.9041 53.2184 95.5398 54.3793C96.5625 56.2589 98.5665 57.1987 101.552 57.1987C104.537 57.1987 106.541 56.2589 107.564 54.3793C108.199 53.2184 108.517 51.2973 108.517 48.6161V31.3681H113.7V50.316C113.7 54.02 112.594 56.867 110.383 58.8571C108.255 60.7367 105.311 61.6765 101.552 61.6765C97.7926 61.6765 94.8626 60.7367 92.7619 58.8571C90.523 56.867 89.4035 54.02 89.4035 50.316ZM124.84 47.4967V56.7426H134.003C137.32 56.7426 138.978 55.1809 138.978 52.0574C138.978 49.0169 137.32 47.4967 134.003 47.4967H124.84ZM119.657 60.9717V31.3681H134.044C136.781 31.3681 138.923 31.99 140.471 33.2339C142.046 34.4777 142.834 36.302 142.834 38.7068C142.834 41.692 141.425 43.7928 138.605 45.009V45.0919C142.309 45.8935 144.161 48.4365 144.161 52.7208C144.161 55.1809 143.304 57.1296 141.59 58.5669C139.683 60.1701 136.905 60.9717 133.257 60.9717H119.657ZM124.84 35.5972V43.7651H133.298C134.57 43.7651 135.606 43.4058 136.408 42.6871C137.237 41.9684 137.652 40.9595 137.652 39.6604C137.652 36.9516 136.2 35.5972 133.298 35.5972H124.84ZM154.033 35.5972V44.8431H162.533C165.905 44.8431 167.591 43.2676 167.591 40.1165C167.591 37.1036 165.877 35.5972 162.45 35.5972H154.033ZM148.85 60.9717V31.3681H162.989C166.195 31.3681 168.628 32.0729 170.286 33.4826C171.944 34.8647 172.774 36.8272 172.774 39.3702C172.774 43.2123 171.143 45.7 167.881 46.8333V46.9162C170.811 47.3308 172.276 49.4177 172.276 53.1769C172.276 57.2125 172.815 59.8108 173.893 60.9717H168.337C167.812 60.1148 167.55 58.6637 167.55 56.6182C167.55 53.7712 167.163 51.781 166.389 50.6477C165.532 49.4039 163.956 48.782 161.662 48.782H154.033V60.9717H148.85ZM178.044 60.9717V31.3681H183.226V60.9717H178.044ZM214.75 40.7799H209.568C208.573 36.8549 206.112 34.8923 202.187 34.8923C199.23 34.8923 196.936 36.0671 195.305 38.4166C193.895 40.462 193.19 43.0464 193.19 46.1699C193.19 49.2933 193.895 51.8778 195.305 53.9232C196.936 56.2727 199.23 57.4474 202.187 57.4474C204.399 57.4474 206.182 56.6873 207.536 55.1671C208.78 53.785 209.512 51.9607 209.733 49.6941H214.792C214.571 53.2598 213.299 56.1483 210.977 58.3596C208.683 60.5709 205.753 61.6765 202.187 61.6765C197.875 61.6765 194.407 60.1424 191.781 57.0743C189.265 54.172 188.008 50.5372 188.008 46.1699C188.008 41.775 189.265 38.1263 191.781 35.224C194.407 32.1835 197.875 30.6633 202.187 30.6633C205.587 30.6633 208.434 31.5478 210.729 33.3168C213.106 35.1687 214.446 37.6564 214.75 40.7799ZM219.381 60.9717V31.3681H224.563V43.1432H238.038V31.3681H243.221V60.9717H238.038V47.621H224.563V60.9717H219.381Z" fill="white"/>
<path d="M33.3739 12.3804V86.0854H26.5176" stroke="white" stroke-width="3.08533"/>
<path d="M19.6621 24.3789H26.5184V49.2329M19.6621 78.3721H26.5184V49.2329M26.5184 49.2329H40.2309M40.2309 49.2329V24.3789H46.2302M40.2309 49.2329V78.3721H46.2302" stroke="#F77B0B" stroke-width="3.08533"/>
<path d="M5.94727 68.9441H16.2317V4.6665L33.3724 13.2369L50.5131 4.6665V68.9441H59.9405" stroke="white" stroke-width="3.08533"/>
<path d="M75.9181 71.1544V73.395H78.1386C78.9425 73.395 79.3444 73.0166 79.3444 72.2596C79.3444 71.5228 78.9425 71.1544 78.1386 71.1544H75.9181ZM74.6621 74.4199V67.2457H78.1487C78.8118 67.2457 79.331 67.3965 79.7061 67.6979C80.0879 67.9993 80.2788 68.4414 80.2788 69.0242C80.2788 69.7477 79.9372 70.2568 79.254 70.5515V70.5716C80.1516 70.7658 80.6004 71.3821 80.6004 72.4204C80.6004 73.0166 80.3927 73.4888 79.9774 73.8371C79.5152 74.2257 78.842 74.4199 77.9578 74.4199H74.6621ZM75.9181 68.2706V70.2501H77.9678C78.276 70.2501 78.5272 70.163 78.7214 69.9888C78.9224 69.8146 79.0229 69.5701 79.0229 69.2553C79.0229 68.5989 78.6712 68.2706 77.9678 68.2706H75.9181ZM85.6052 74.4199V67.2457H90.7698V68.3309H86.8612V70.2099H90.4784V71.2347H86.8612V73.3348H90.8402V74.4199H85.6052ZM95.5916 68.3309V67.2457H101.048V68.2003L96.8677 73.3348H101.148V74.4199H95.2701V73.395L99.45 68.3309H95.5916ZM106 74.4199V67.2457H107.256V74.4199H106ZM112.665 74.4199V67.2457H117.83V68.3309H113.921V70.2099H117.538V71.2347H113.921V73.3348H117.9V74.4199H112.665ZM122.832 74.4199V67.2457H124.088V70.0993H127.354V67.2457H128.61V74.4199H127.354V71.1845H124.088V74.4199H122.832ZM133.902 71.8376V67.2457H135.158V71.4257C135.158 72.0754 135.235 72.541 135.389 72.8223C135.637 73.2778 136.122 73.5056 136.846 73.5056C137.569 73.5056 138.055 73.2778 138.303 72.8223C138.457 72.541 138.534 72.0754 138.534 71.4257V67.2457H139.79V71.8376C139.79 72.7352 139.522 73.4252 138.986 73.9075C138.47 74.363 137.757 74.5907 136.846 74.5907C135.935 74.5907 135.225 74.363 134.716 73.9075C134.173 73.4252 133.902 72.7352 133.902 71.8376ZM145.052 74.4199V67.2457H146.378L149.654 72.5309H149.674V67.2457H150.869V74.4199H149.543L146.278 69.1448H146.247V74.4199H145.052ZM162.482 70.6419V74.4199H161.678L161.487 73.5759C161.159 73.951 160.827 74.2156 160.492 74.3697C160.164 74.5171 159.775 74.5907 159.327 74.5907C158.282 74.5907 157.441 74.219 156.805 73.4754C156.195 72.7721 155.89 71.8912 155.89 70.8328C155.89 69.7745 156.195 68.8902 156.805 68.1802C157.441 67.4433 158.282 67.0749 159.327 67.0749C160.144 67.0749 160.827 67.2826 161.376 67.6979C161.966 68.1333 162.307 68.7429 162.401 69.5266H161.175C161.115 69.0711 160.904 68.7161 160.542 68.4615C160.207 68.2204 159.802 68.0998 159.327 68.0998C158.61 68.0998 158.054 68.3845 157.659 68.9539C157.317 69.4496 157.146 70.0759 157.146 70.8328C157.146 71.5898 157.317 72.2161 157.659 72.7118C158.047 73.2745 158.603 73.5592 159.327 73.5659C159.963 73.5726 160.452 73.4017 160.794 73.0534C161.142 72.6984 161.323 72.2127 161.336 71.5965H159.427V70.6419H162.482ZM167.282 72.0285H168.538C168.538 72.551 168.716 72.9462 169.071 73.2142C169.386 73.4486 169.814 73.5659 170.357 73.5659C170.873 73.5659 171.265 73.452 171.533 73.2242C171.76 73.03 171.874 72.7821 171.874 72.4807C171.874 72.0386 171.677 71.7438 171.281 71.5965C171.228 71.5764 170.514 71.3788 169.141 71.0036C168.083 70.7156 167.554 70.1094 167.554 69.185C167.554 68.5084 167.828 67.9759 168.378 67.5874C168.867 67.2457 169.466 67.0749 170.176 67.0749C170.96 67.0749 171.606 67.2692 172.115 67.6577C172.658 68.0797 172.929 68.6491 172.929 69.3658H171.673C171.62 68.5218 171.104 68.0998 170.126 68.0998C169.778 68.0998 169.486 68.1634 169.252 68.2907C168.957 68.4582 168.81 68.706 168.81 69.0343C168.81 69.4965 169.094 69.8046 169.664 69.9587C170.233 70.106 170.923 70.2902 171.734 70.5113C172.182 70.6453 172.534 70.8931 172.789 71.2548C173.016 71.5831 173.13 71.9448 173.13 72.34C173.13 73.0903 172.832 73.6663 172.236 74.0682C171.72 74.4166 171.067 74.5907 170.277 74.5907C169.406 74.5907 168.706 74.3864 168.177 73.9778C167.594 73.529 167.296 72.8792 167.282 72.0285ZM184.197 69.5266H182.941C182.7 68.5754 182.104 68.0998 181.153 68.0998C180.436 68.0998 179.88 68.3845 179.485 68.9539C179.143 69.4496 178.972 70.0759 178.972 70.8328C178.972 71.5898 179.143 72.2161 179.485 72.7118C179.88 73.2812 180.436 73.5659 181.153 73.5659C181.689 73.5659 182.121 73.3816 182.449 73.0132C182.75 72.6783 182.928 72.2362 182.982 71.6869H184.207C184.154 72.551 183.846 73.251 183.283 73.7869C182.727 74.3228 182.017 74.5907 181.153 74.5907C180.108 74.5907 179.267 74.219 178.631 73.4754C178.021 72.7721 177.716 71.8912 177.716 70.8328C177.716 69.7678 178.021 68.8835 178.631 68.1802C179.267 67.4433 180.108 67.0749 181.153 67.0749C181.977 67.0749 182.667 67.2893 183.223 67.718C183.799 68.1668 184.124 68.7697 184.197 69.5266ZM192.273 67.0749C193.318 67.0749 194.158 67.4433 194.795 68.1802C195.404 68.8902 195.709 69.7745 195.709 70.8328C195.709 71.8912 195.404 72.7721 194.795 73.4754C194.158 74.219 193.318 74.5907 192.273 74.5907C191.228 74.5907 190.387 74.219 189.751 73.4754C189.141 72.7721 188.836 71.8912 188.836 70.8328C188.836 69.7745 189.141 68.8902 189.751 68.1802C190.387 67.4433 191.228 67.0749 192.273 67.0749ZM192.273 68.0998C191.556 68.0998 191 68.3845 190.605 68.9539C190.263 69.4496 190.092 70.0759 190.092 70.8328C190.092 71.5898 190.263 72.2161 190.605 72.7118C191 73.2812 191.556 73.5659 192.273 73.5659C192.989 73.5659 193.545 73.2812 193.941 72.7118C194.282 72.2161 194.453 71.5898 194.453 70.8328C194.453 70.0759 194.282 69.4496 193.941 68.9539C193.545 68.3845 192.989 68.0998 192.273 68.0998ZM203.283 68.4816L202.198 71.5663H204.388L203.313 68.4816H203.283ZM199.887 74.4199L202.64 67.2457H203.976L206.739 74.4199H205.393L204.72 72.5209H201.856L201.183 74.4199H199.887ZM217.39 69.5266H216.134C215.893 68.5754 215.297 68.0998 214.345 68.0998C213.629 68.0998 213.073 68.3845 212.677 68.9539C212.336 69.4496 212.165 70.0759 212.165 70.8328C212.165 71.5898 212.336 72.2161 212.677 72.7118C213.073 73.2812 213.629 73.5659 214.345 73.5659C214.881 73.5659 215.313 73.3816 215.642 73.0132C215.943 72.6783 216.12 72.2362 216.174 71.6869H217.4C217.346 72.551 217.038 73.251 216.475 73.7869C215.92 74.3228 215.209 74.5907 214.345 74.5907C213.3 74.5907 212.46 74.219 211.823 73.4754C211.214 72.7721 210.909 71.8912 210.909 70.8328C210.909 69.7678 211.214 68.8835 211.823 68.1802C212.46 67.4433 213.3 67.0749 214.345 67.0749C215.169 67.0749 215.859 67.2893 216.415 67.718C216.991 68.1668 217.316 68.7697 217.39 69.5266ZM222.38 74.4199V67.2457H223.636V70.0993H226.902V67.2457H228.158V74.4199H226.902V71.1845H223.636V74.4199H222.38Z" fill="white"/>
</svg>
