<svg width="146" height="53" viewBox="0 0 146 53" fill="none" xmlns="http://www.w3.org/2000/svg">
<path d="M35.2786 13.1465V3.14664H37.7435L40.5026 10.9757H40.5306L43.2196 3.14664H45.6566V13.1465H43.9899V5.42952H43.9619L41.1889 13.1465H39.7463L36.9732 5.42952H36.9452V13.1465H35.2786ZM51.3242 4.86931L49.8116 9.16896H52.8647L51.3662 4.86931H51.3242ZM46.5903 13.1465L50.4278 3.14664H52.2905L56.142 13.1465H54.2653L53.3269 10.4995H49.3354L48.397 13.1465H46.5903ZM58.8449 4.57519V7.69839H61.716C62.8551 7.69839 63.4247 7.16619 63.4247 6.10178C63.4247 5.08405 62.8458 4.57519 61.688 4.57519H58.8449ZM57.0943 13.1465V3.14664H61.8701C62.9532 3.14664 63.7748 3.38473 64.335 3.86092C64.8953 4.32776 65.1754 4.99069 65.1754 5.84968C65.1754 7.14751 64.6245 7.98784 63.5227 8.37065V8.39866C64.5124 8.53871 65.0073 9.24365 65.0073 10.5135C65.0073 11.8767 65.1894 12.7543 65.5535 13.1465H63.6768C63.4994 12.857 63.4107 12.3669 63.4107 11.6759C63.4107 10.7142 63.28 10.042 63.0185 9.65914C62.7291 9.23898 62.1969 9.0289 61.4219 9.0289H58.8449V13.1465H57.0943ZM75.4567 6.32586H73.7061C73.3699 5.00002 72.5389 4.3371 71.2131 4.3371C70.2141 4.3371 69.4391 4.73392 68.8882 5.52756C68.412 6.21849 68.1739 7.09149 68.1739 8.14656C68.1739 9.20164 68.412 10.0746 68.8882 10.7656C69.4391 11.5592 70.2141 11.956 71.2131 11.956C71.9601 11.956 72.5623 11.6993 73.0198 11.1857C73.44 10.7189 73.6874 10.1026 73.7621 9.33702H75.4707C75.396 10.5415 74.9665 11.5172 74.1822 12.2641C73.4073 13.0111 72.4176 13.3846 71.2131 13.3846C69.7565 13.3846 68.5848 12.8664 67.6978 11.83C66.8481 10.8496 66.4233 9.6218 66.4233 8.14656C66.4233 6.66199 66.8481 5.42952 67.6978 4.44914C68.5848 3.42208 69.7565 2.90855 71.2131 2.90855C72.3615 2.90855 73.3232 3.20733 74.0982 3.8049C74.9012 4.43047 75.354 5.27079 75.4567 6.32586ZM86.3529 3.14664V9.92525C86.3529 10.9803 86.1615 11.774 85.7787 12.3062C85.2652 13.0251 84.3595 13.3846 83.0617 13.3846C82.0533 13.3846 81.2923 13.0765 80.7788 12.4602C80.3119 11.9093 80.0785 11.1484 80.0785 10.1773V9.64514H81.8292V10.1633C81.8292 10.7609 81.9272 11.1997 82.1233 11.4798C82.338 11.7973 82.6975 11.956 83.2017 11.956C83.7432 11.956 84.1167 11.788 84.3221 11.4518C84.5089 11.1717 84.6022 10.6955 84.6022 10.0233V3.14664H86.3529ZM92.7409 2.90855C94.1975 2.90855 95.3692 3.42208 96.2563 4.44914C97.1059 5.43886 97.5307 6.67133 97.5307 8.14656C97.5307 9.6218 97.1059 10.8496 96.2563 11.83C95.3692 12.8664 94.1975 13.3846 92.7409 13.3846C91.2843 13.3846 90.1126 12.8664 89.2256 11.83C88.3759 10.8496 87.9511 9.6218 87.9511 8.14656C87.9511 6.67133 88.3759 5.43886 89.2256 4.44914C90.1126 3.42208 91.2843 2.90855 92.7409 2.90855ZM92.7409 4.3371C91.7419 4.3371 90.9669 4.73392 90.416 5.52756C89.9398 6.21849 89.7017 7.09149 89.7017 8.14656C89.7017 9.20164 89.9398 10.0746 90.416 10.7656C90.9669 11.5592 91.7419 11.956 92.7409 11.956C93.74 11.956 94.5149 11.5592 95.0658 10.7656C95.542 10.0746 95.7801 9.20164 95.7801 8.14656C95.7801 7.09149 95.542 6.21849 95.0658 5.52756C94.5149 4.73392 93.74 4.3371 92.7409 4.3371ZM102.695 4.86931L101.183 9.16896H104.236L102.737 4.86931H102.695ZM97.9616 13.1465L101.799 3.14664H103.662L107.513 13.1465H105.637L104.698 10.4995H100.707L99.7683 13.1465H97.9616ZM116.967 6.32586H115.216C114.88 5.00002 114.049 4.3371 112.723 4.3371C111.724 4.3371 110.949 4.73392 110.398 5.52756C109.922 6.21849 109.684 7.09149 109.684 8.14656C109.684 9.20164 109.922 10.0746 110.398 10.7656C110.949 11.5592 111.724 11.956 112.723 11.956C113.47 11.956 114.072 11.6993 114.53 11.1857C114.95 10.7189 115.197 10.1026 115.272 9.33702H116.981C116.906 10.5415 116.477 11.5172 115.692 12.2641C114.917 13.0111 113.928 13.3846 112.723 13.3846C111.267 13.3846 110.095 12.8664 109.208 11.83C108.358 10.8496 107.933 9.6218 107.933 8.14656C107.933 6.66199 108.358 5.42952 109.208 4.44914C110.095 3.42208 111.267 2.90855 112.723 2.90855C113.872 2.90855 114.833 3.20733 115.608 3.8049C116.411 4.43047 116.864 5.27079 116.967 6.32586ZM118.531 13.1465V3.14664H120.282V7.12417H124.833V3.14664H126.584V13.1465H124.833V8.63675H120.282V13.1465H118.531ZM128.68 13.1465V3.14664H130.431V13.1465H128.68ZM132.55 13.1465V3.14664H135.015L137.774 10.9757H137.802L140.491 3.14664H142.928V13.1465H141.262V5.42952H141.234L138.461 13.1465H137.018L134.245 5.42952H134.217V13.1465H132.55Z" fill="#003E92"/>
<path d="M35.1496 35.3501V17.9169H38.2016V24.8511H46.1369V17.9169H49.1889V35.3501H46.1369V27.4881H38.2016V35.3501H35.1496ZM52.6482 29.0751V17.9169H55.7003V28.074C55.7003 29.653 55.8874 30.7843 56.2618 31.4679C56.8641 32.5748 58.0442 33.1282 59.8022 33.1282C61.5602 33.1282 62.7403 32.5748 63.3426 31.4679C63.7169 30.7843 63.9041 29.653 63.9041 28.074V17.9169H66.9562V29.0751C66.9562 31.2563 66.3051 32.9329 65.0029 34.1049C63.7495 35.2117 62.0159 35.7652 59.8022 35.7652C57.5884 35.7652 55.863 35.2117 54.6259 34.1049C53.3075 32.9329 52.6482 31.2563 52.6482 29.0751ZM73.5163 27.4148V32.8596H78.9123C80.8656 32.8596 81.8423 31.94 81.8423 30.1006C81.8423 28.3101 80.8656 27.4148 78.9123 27.4148H73.5163ZM70.4643 35.3501V17.9169H78.9367C80.5482 17.9169 81.8097 18.2831 82.7212 19.0156C83.6491 19.7481 84.113 20.8224 84.113 22.2386C84.113 23.9965 83.2828 25.2336 81.6225 25.9498V25.9987C83.8037 26.4707 84.8943 27.9682 84.8943 30.4913C84.8943 31.94 84.3897 33.0875 83.3805 33.934C82.2573 34.878 80.6214 35.3501 78.4728 35.3501H70.4643ZM73.5163 20.4073V25.2173H78.4972C79.246 25.2173 79.8564 25.0057 80.3285 24.5825C80.8168 24.1593 81.0609 23.5652 81.0609 22.8001C81.0609 21.2049 80.2064 20.4073 78.4972 20.4073H73.5163ZM90.7078 20.4073V25.8522H95.7132C97.699 25.8522 98.692 24.9243 98.692 23.0687C98.692 21.2945 97.6828 20.4073 95.6644 20.4073H90.7078ZM87.6558 35.3501V17.9169H95.9818C97.87 17.9169 99.3024 18.332 100.279 19.1621C101.256 19.976 101.744 21.1317 101.744 22.6292C101.744 24.8918 100.784 26.3568 98.8629 27.0241V27.073C100.588 27.3171 101.451 28.5461 101.451 30.7598C101.451 33.1364 101.768 34.6664 102.403 35.3501H99.1315C98.8222 34.8455 98.6676 33.9909 98.6676 32.7864C98.6676 31.1098 98.4397 29.9378 97.9839 29.2704C97.4793 28.538 96.5515 28.1717 95.2004 28.1717H90.7078V35.3501H87.6558ZM104.847 35.3501V17.9169H107.899V35.3501H104.847ZM126.464 23.4594H123.412C122.826 21.148 121.377 19.9923 119.065 19.9923C117.324 19.9923 115.973 20.6841 115.012 22.0676C114.182 23.2722 113.767 24.7941 113.767 26.6335C113.767 28.4728 114.182 29.9948 115.012 31.1993C115.973 32.5829 117.324 33.2747 119.065 33.2747C120.368 33.2747 121.418 32.8271 122.215 31.9318C122.948 31.1179 123.379 30.0436 123.509 28.7089H126.488C126.358 30.8087 125.609 32.5097 124.242 33.8119C122.891 35.1141 121.165 35.7652 119.065 35.7652C116.526 35.7652 114.483 34.8618 112.937 33.055C111.456 31.3458 110.715 29.2053 110.715 26.6335C110.715 24.0454 111.456 21.8967 112.937 20.1876C114.483 18.3971 116.526 17.5018 119.065 17.5018C121.068 17.5018 122.744 18.0227 124.095 19.0644C125.495 20.155 126.285 21.62 126.464 23.4594ZM129.19 35.3501V17.9169H132.242V24.8511H140.178V17.9169H143.23V35.3501H140.178V27.4881H132.242V35.3501H129.19Z" fill="#003E92"/>
<path d="M19.6527 7.29053V50.6946H15.6151" stroke="#003E92" stroke-width="1.81691"/>
<path d="M11.578 14.3564H15.6156V28.9927M11.578 46.1524H15.6156V28.9927M15.6156 28.9927H23.6908M23.6908 28.9927V14.3564H27.2237M23.6908 28.9927V46.1524H27.2237" stroke="#F77B0B" stroke-width="1.81691"/>
<path d="M3.50183 40.6004H9.55821V2.74805L19.6522 7.79503L29.7461 2.74805V40.6004H35.2978" stroke="#003E92" stroke-width="1.81691"/>
<path d="M44.7069 42.013V43.3325H46.0146C46.488 43.3325 46.7246 43.1096 46.7246 42.6639C46.7246 42.2299 46.488 42.013 46.0146 42.013H44.7069ZM43.9673 43.936V39.7112H46.0205C46.411 39.7112 46.7167 39.8 46.9377 39.9775C47.1625 40.155 47.2749 40.4154 47.2749 40.7586C47.2749 41.1846 47.0737 41.4844 46.6714 41.658V41.6698C47.2 41.7842 47.4643 42.1471 47.4643 42.7585C47.4643 43.1096 47.342 43.3877 47.0974 43.5928C46.8252 43.8216 46.4288 43.936 45.9081 43.936H43.9673ZM44.7069 40.3148V41.4804H45.914C46.0955 41.4804 46.2434 41.4292 46.3578 41.3266C46.4761 41.224 46.5353 41.0801 46.5353 40.8947C46.5353 40.5081 46.3282 40.3148 45.914 40.3148H44.7069ZM50.4116 43.936V39.7112H53.453V40.3503H51.1512V41.4568H53.2814V42.0603H51.1512V43.297H53.4944V43.936H50.4116ZM56.2925 40.3503V39.7112H59.5054V40.2734L57.0439 43.297H59.5646V43.936H56.1031V43.3325L58.5646 40.3503H56.2925ZM62.4219 43.936V39.7112H63.1615V43.936H62.4219ZM66.3468 43.936V39.7112H69.3882V40.3503H67.0864V41.4568H69.2166V42.0603H67.0864V43.297H69.4296V43.936H66.3468ZM72.3342 43.936V39.7112H73.0738V41.3917H74.9969V39.7112H75.7365V43.936H74.9969V42.0307H73.0738V43.936H72.3342ZM78.8529 42.4153V39.7112H79.5925V42.1727C79.5925 42.5554 79.6379 42.8295 79.7286 42.9952C79.8746 43.2635 80.1606 43.3976 80.5866 43.3976C81.0126 43.3976 81.2986 43.2635 81.4446 42.9952C81.5353 42.8295 81.5807 42.5554 81.5807 42.1727V39.7112H82.3203V42.4153C82.3203 42.9439 82.1625 43.3502 81.8469 43.6343C81.5432 43.9025 81.1231 44.0366 80.5866 44.0366C80.0501 44.0366 79.632 43.9025 79.3322 43.6343C79.0127 43.3502 78.8529 42.9439 78.8529 42.4153ZM85.419 43.936V39.7112H86.2L88.129 42.8236H88.1408V39.7112H88.845V43.936H88.0639L86.1409 40.8296H86.1231V43.936H85.419ZM95.6832 41.7112V43.936H95.2098L95.0974 43.439C94.9041 43.6599 94.7089 43.8157 94.5116 43.9064C94.3183 43.9932 94.0895 44.0366 93.8252 44.0366C93.2099 44.0366 92.7148 43.8177 92.3401 43.3798C91.9811 42.9656 91.8016 42.4469 91.8016 41.8236C91.8016 41.2004 91.9811 40.6797 92.3401 40.2615C92.7148 39.8276 93.2099 39.6106 93.8252 39.6106C94.3065 39.6106 94.7089 39.7329 95.0323 39.9775C95.3795 40.2339 95.5806 40.5929 95.6359 41.0544H94.914C94.8785 40.7862 94.7542 40.5771 94.5412 40.4272C94.344 40.2852 94.1053 40.2142 93.8252 40.2142C93.4032 40.2142 93.0757 40.3818 92.843 40.7171C92.6418 41.0091 92.5412 41.3779 92.5412 41.8236C92.5412 42.2694 92.6418 42.6382 92.843 42.9301C93.0718 43.2615 93.3992 43.4291 93.8252 43.4331C94.2 43.437 94.488 43.3364 94.6891 43.1313C94.8943 42.9222 95.0008 42.6362 95.0087 42.2733H93.8844V41.7112H95.6832ZM98.5103 42.5278H99.25C99.25 42.8355 99.3545 43.0682 99.5636 43.226C99.749 43.3641 100.001 43.4331 100.321 43.4331C100.625 43.4331 100.855 43.366 101.013 43.2319C101.147 43.1175 101.214 42.9716 101.214 42.794C101.214 42.5337 101.098 42.3601 100.865 42.2733C100.834 42.2615 100.414 42.1451 99.605 41.9242C98.9817 41.7546 98.6701 41.3976 98.6701 40.8532C98.6701 40.4548 98.8318 40.1412 99.1553 39.9124C99.4433 39.7112 99.7963 39.6106 100.214 39.6106C100.676 39.6106 101.057 39.725 101.356 39.9538C101.676 40.2024 101.836 40.5377 101.836 40.9597H101.096C101.065 40.4627 100.761 40.2142 100.185 40.2142C99.9797 40.2142 99.8081 40.2517 99.6701 40.3266C99.4965 40.4252 99.4097 40.5712 99.4097 40.7645C99.4097 41.0367 99.5774 41.2181 99.9127 41.3089C100.248 41.3956 100.654 41.5041 101.132 41.6343C101.396 41.7132 101.603 41.8591 101.753 42.0722C101.887 42.2654 101.954 42.4785 101.954 42.7112C101.954 43.153 101.779 43.4923 101.427 43.7289C101.124 43.9341 100.739 44.0366 100.274 44.0366C99.7608 44.0366 99.3486 43.9163 99.0369 43.6757C98.6938 43.4114 98.5182 43.0287 98.5103 42.5278ZM108.471 41.0544H107.732C107.59 40.4943 107.239 40.2142 106.678 40.2142C106.256 40.2142 105.929 40.3818 105.696 40.7171C105.495 41.0091 105.394 41.3779 105.394 41.8236C105.394 42.2694 105.495 42.6382 105.696 42.9301C105.929 43.2654 106.256 43.4331 106.678 43.4331C106.994 43.4331 107.248 43.3246 107.442 43.1076C107.619 42.9104 107.724 42.6501 107.755 42.3266H108.477C108.446 42.8355 108.264 43.2477 107.933 43.5633C107.605 43.8788 107.187 44.0366 106.678 44.0366C106.063 44.0366 105.568 43.8177 105.193 43.3798C104.834 42.9656 104.655 42.4469 104.655 41.8236C104.655 41.1964 104.834 40.6757 105.193 40.2615C105.568 39.8276 106.063 39.6106 106.678 39.6106C107.164 39.6106 107.57 39.7369 107.897 39.9893C108.237 40.2536 108.428 40.6087 108.471 41.0544ZM113.227 39.6106C113.842 39.6106 114.337 39.8276 114.712 40.2615C115.071 40.6797 115.25 41.2004 115.25 41.8236C115.25 42.4469 115.071 42.9656 114.712 43.3798C114.337 43.8177 113.842 44.0366 113.227 44.0366C112.611 44.0366 112.116 43.8177 111.742 43.3798C111.383 42.9656 111.203 42.4469 111.203 41.8236C111.203 41.2004 111.383 40.6797 111.742 40.2615C112.116 39.8276 112.611 39.6106 113.227 39.6106ZM113.227 40.2142C112.805 40.2142 112.477 40.3818 112.245 40.7171C112.043 41.0091 111.943 41.3779 111.943 41.8236C111.943 42.2694 112.043 42.6382 112.245 42.9301C112.477 43.2654 112.805 43.4331 113.227 43.4331C113.649 43.4331 113.976 43.2654 114.209 42.9301C114.41 42.6382 114.511 42.2694 114.511 41.8236C114.511 41.3779 114.41 41.0091 114.209 40.7171C113.976 40.3818 113.649 40.2142 113.227 40.2142ZM119.711 40.439L119.071 42.2556H120.361L119.728 40.439H119.711ZM117.711 43.936L119.332 39.7112H120.119L121.746 43.936H120.953L120.557 42.8177H118.87L118.474 43.936H117.711ZM128.018 41.0544H127.278C127.136 40.4943 126.785 40.2142 126.225 40.2142C125.803 40.2142 125.476 40.3818 125.243 40.7171C125.042 41.0091 124.941 41.3779 124.941 41.8236C124.941 42.2694 125.042 42.6382 125.243 42.9301C125.476 43.2654 125.803 43.4331 126.225 43.4331C126.541 43.4331 126.795 43.3246 126.988 43.1076C127.166 42.9104 127.271 42.6501 127.302 42.3266H128.024C127.992 42.8355 127.811 43.2477 127.48 43.5633C127.152 43.8788 126.734 44.0366 126.225 44.0366C125.61 44.0366 125.115 43.8177 124.74 43.3798C124.381 42.9656 124.202 42.4469 124.202 41.8236C124.202 41.1964 124.381 40.6757 124.74 40.2615C125.115 39.8276 125.61 39.6106 126.225 39.6106C126.71 39.6106 127.117 39.7369 127.444 39.9893C127.783 40.2536 127.975 40.6087 128.018 41.0544ZM130.957 43.936V39.7112H131.697V41.3917H133.62V39.7112H134.359V43.936H133.62V42.0307H131.697V43.936H130.957Z" fill="#003E92"/>
</svg>
